<?xml version="1.0" encoding="utf-8"?>
<!-- Generator: Adobe Illustrator 25.2.0, SVG Export Plug-In . SVG Version: 6.00 Build 0)  -->
<svg version="1.1" id="Layer_1" xmlns="http://www.w3.org/2000/svg" preserveAspectRatio="xMidYMid meet" xmlns:xlink="http://www.w3.org/1999/xlink" x="0px" y="0px" 
viewBox="0 0 320 320" style="enable-background:new 0 0 320 320;" xml:space="preserve">

<rect width="320" height="320" fill="white"/>
<g transform="translate(20,129)">
<g>
	<path d="M66,45.6c0,0,0,0.1,0,0.1c0-0.1-0.1-0.2-0.1-0.3v0l0-0.1c0-0.1-0.1-0.2-0.1-0.3l0,0c-0.1-0.3-0.3-0.6-0.4-0.8l-0.2-0.3l0,0
		c-0.1-0.1-0.2-0.3-0.2-0.4c0.1,0.1,0.1,0.3,0.2,0.4c-0.2-0.4-0.5-0.8-0.7-1.2c-0.5-0.7-1-1.4-1.6-2.1l0,0l-0.1-0.1l-0.1-0.1
		c-0.1-0.1-0.1-0.1-0.2-0.2l0,0c-1.7-1.9-3.8-3.5-6.2-4.7l0,0c-2.5-1.3-5.3-2.1-8.1-2.4l0,0c-8.9-0.9-17.6,3.9-21.6,6.6l0,0
		c-0.6,0.4-1.1,0.7-1.4,1c-1.5,1-2.9,1.9-2.9,1.9l0,0c-1,0.5-5.3,2.7-9.2,1.2l0,0c-1.4-0.5-2.6-1.4-3.5-2.5
		c-0.2-0.2-0.3-0.5-0.5-0.7C9.1,40.2,9,40.1,8.9,40l0,0c-0.7-1.5-1.3-4.1,0.1-8.3L4.7,39L4,40.4c0,0-0.5,0.8-0.5,0.9l-0.2,0.4
		l-0.1,0.1c-0.5,0.9-1,1.9-1.3,2.9l0,0c-0.2,0.6-0.4,1.2-0.6,1.8l0,0c-0.3,1.4-0.5,2.8-0.3,4.2l0,0c0.2,2.5,1.3,4.9,3,6.8l0,0
		c1.1,1.3,2.6,2.3,4.2,2.9c0,0,7.9,3.4,16.6-4.2c0.5-0.4,1.6-1.5,3.6-4.1c0.3-0.4,0.6-0.8,1-1.2l0,0l0,0c2.7-3.3,7.5-8.3,13.6-10.3
		c2.7-1,5.5-1.4,8.3-1.4c2.6,0,5.2,0.4,7.7,1.2c-8.5-2.3-15.3,0.6-20.4,4.6c-2.5,2-4.8,4.4-6.7,6.9c5.4-0.6,10,4.4,15,7
		c0.6,0.3,1.3,0.6,1.9,0.9c0.6,0.3,1.3,0.5,2,0.7l0.1,0l0.1,0l0.1,0c1.2,0.3,2.4,0.5,3.6,0.6c0.2,0,0.4,0,0.7,0h0c0.3,0,0.6,0,0.8,0
		c1.3-0.1,2.6-0.4,3.8-0.9C65.6,57.8,68.3,51.4,66,45.6L66,45.6z M64.4,43.1L64.4,43.1c-0.1-0.1-0.2-0.2-0.2-0.2L64.4,43.1z"/>
	<path d="M8.9,33.2c0,0-0.2,2.5,1.2,4.3l0,0c0,0,0.9,1.4,3.1,1.8l0,0c1.7,0.3,4.8,0.1,9-3.1c0.7-0.5,1.7-1.3,2.4-1.9l0.1,0l0,0l0,0
		c2.7-2.6,10.9-9.7,18.5-10.4l0.3,0c0.9-0.1,1.7,0,2.6,0.1h0c0.7,0.1,1.3,0.3,2,0.5c0.8,0.3,1.6,0.6,2.3,1l0,0
		c0.3,0.2,0.9,0.4,1.5,0.9c2.5,1.6,4.8,3.7,6.6,6.1l-2-3.5l-1.7-2.9l0,0l-0.2-0.3l-0.7-1.3l-2.1-3.7L50.7,19c-0.2-0.4-0.5-0.7-0.8-1
		l-0.2-0.2c-0.5-0.4-1-0.8-1.6-1.1c-0.9-0.4-1.8-0.7-2.8-0.9l0,0c-5.3-0.9-9.6,1.7-11.1,2.7l0,0L34,18.7l-1.5,1
		c-0.1,0.1-0.3,0.2-0.4,0.3c-1.5,1-3.2,1.9-5,2.2s-3.8,0-5.1-1.3c-1.3-1.3-1.8-3.2-1.8-5.1c0-1,0.1-1.9,0.4-2.8
		c0.2-0.9,0.6-1.7,1-2.5l-1.4,2.4c-0.1,0.2-0.2,0.3-0.3,0.5l0,0l-1,1.7c0,0,0,0,0,0L9.2,31.6C9,32.1,8.9,32.7,8.9,33.2L8.9,33.2z"/>
	<path d="M21.4,12.4c0,0.1,0,0.2,0,0.3l0,0c0.1,1.4,0.7,2.7,1.7,3.7l0,0c1.1,1.1,2.5,1.7,4,1.7h0.3l0,0c0.2,0,0.4,0,0.5-0.1
		c0.2,0,0.4-0.1,0.7-0.1c1.9-0.5,3.8-1.2,5.6-2c1.5-0.7,3.1-1.2,4.8-1.7c1.7-0.4,7.3-1.3,11,3.4l0,0l0.3,0.4l0,0l0,0l-2.5-4.3
		l-0.1-0.2L46.7,12L44,7.4C42.1,3.5,38.1,1,33.7,1c-4.1,0-8.2,3-10.3,6.2l0,0l0,0l-0.1,0.1c-0.5,0.8-0.8,1.4-1.1,1.8S22,9.9,22,9.9
		l0,0C21.6,10.7,21.3,11.5,21.4,12.4z"/>
</g>
<g>
	<path d="M132,32.6c0,1.6-0.4,2.9-1.2,3.7c-0.9,0.9-2,1.3-3.3,1.2c-1.2,0.1-2.4-0.4-3.3-1.3c-0.8-0.9-1.1-2.1-1.1-3.8V20.8h-4.5
		v11.7c0,3,0.8,5.3,2.4,6.8s3.8,2.3,6.5,2.3c1.3,0,2.5-0.2,3.7-0.6c1.1-0.3,2-0.9,2.9-1.7c0.8-0.8,1.4-1.8,1.8-2.9
		c0.4-1.3,0.7-2.7,0.6-4.1V20.8H132L132,32.6z"/>
	<path d="M162.3,31.7c0.8-1.2,1.3-2.6,1.2-4.1v-0.1c0.1-1.7-0.6-3.4-1.8-4.7c-1.4-1.4-3.4-2.1-6-2.1h-9.4v20.5h4.5v-6.6h3.5l4.4,6.6
		h5.3l-5-7.3C160.3,33.6,161.4,32.8,162.3,31.7z M158.9,27.9c0,0.8-0.3,1.6-0.9,2.1c-0.7,0.6-1.6,0.9-2.6,0.8h-4.6v-5.9h4.5
		c0.9-0.1,1.8,0.2,2.6,0.7C158.6,26.2,159,27,158.9,27.9L158.9,27.9z"/>
	<path d="M189.3,31.7c0.9-1.2,1.3-2.6,1.2-4.1v-0.1c0.1-1.7-0.6-3.4-1.8-4.7c-1.4-1.4-3.4-2.1-6-2.1h-9.4v20.5h4.5v-6.6h3.5l4.4,6.6
		h5.3l-5-7.3C187.4,33.6,188.5,32.8,189.3,31.7z M186,27.9c0,0.8-0.3,1.6-0.9,2.1c-0.7,0.6-1.6,0.9-2.6,0.8H178v-5.9h4.5
		c0.9-0.1,1.8,0.2,2.6,0.7C185.7,26.2,186,27,186,27.9L186,27.9z"/>
	<path d="M217.8,23.6c-1-1-2.2-1.7-3.4-2.3c-1.4-0.6-2.9-0.9-4.4-0.8c-1.5,0-3,0.3-4.4,0.8c-1.3,0.5-2.4,1.3-3.4,2.3
		c-1,1-1.8,2.1-2.3,3.4c-0.6,1.3-0.8,2.7-0.8,4.1v0.1c0,1.4,0.3,2.8,0.8,4.1c0.5,1.3,1.3,2.4,2.3,3.3c1,1,2.2,1.7,3.4,2.3
		c1.4,0.6,2.9,0.9,4.4,0.8c1.5,0,3-0.3,4.4-0.8c2.6-1.1,4.6-3.1,5.7-5.7c0.6-1.3,0.8-2.7,0.8-4.1V31c0-1.4-0.3-2.8-0.8-4.1
		C219.5,25.7,218.8,24.5,217.8,23.6z M216.1,31.1c0,0.8-0.2,1.7-0.5,2.5c-0.3,0.8-0.7,1.4-1.3,2c-0.5,0.6-1.2,1.1-1.9,1.4
		c-0.8,0.3-1.6,0.5-2.5,0.5c-0.9,0-1.7-0.2-2.5-0.5c-1.5-0.7-2.7-1.9-3.3-3.4c-0.3-0.8-0.5-1.6-0.5-2.5V31c0-0.8,0.1-1.7,0.5-2.5
		c0.3-0.8,0.7-1.4,1.3-2c0.5-0.6,1.2-1.1,1.9-1.4c0.8-0.3,1.6-0.5,2.5-0.5c0.9,0,1.7,0.2,2.5,0.5c0.7,0.3,1.4,0.8,2,1.4
		c0.6,0.6,1,1.3,1.3,2.1C216,29.4,216.1,30.3,216.1,31.1L216.1,31.1z"/>
	<path d="M245.9,31.7c0.9-1.2,1.3-2.6,1.2-4.1v-0.1c0.1-1.7-0.6-3.4-1.8-4.7c-1.4-1.4-3.4-2.1-6-2.1H230v20.5h4.5v-6.6h3.5l4.4,6.6
		h5.3l-5-7.3C244,33.6,245.1,32.8,245.9,31.7z M242.6,27.9c0,0.8-0.3,1.6-0.9,2.1c-0.7,0.6-1.6,0.9-2.6,0.8h-4.6v-5.9h4.5
		c0.9-0.1,1.8,0.2,2.6,0.7C242.3,26.2,242.7,27,242.6,27.9L242.6,27.9z"/>
	<polygon points="102.7,24.9 100.1,20.4 98.9,22.5 87.7,41.3 92.9,41.4 100.1,29.3 107.3,41.4 112.5,41.3 	"/>
	<polygon points="269.8,24.9 267.1,20.4 265.9,22.5 254.7,41.3 260,41.4 267.1,29.3 274.3,41.4 279.6,41.3 	"/>
</g>
</g>
</svg>
